<svg width="15" height="15" viewBox="0 0 15 15" fill="none" xmlns="http://www.w3.org/2000/svg">
<path d="M9.04824 5.8451C9.04824 5.92065 9.10949 5.9819 9.18504 5.9819H14.4076C14.4831 5.9819 14.5444 6.04314 14.5444 6.11869V8.95219C14.5444 9.02774 14.4831 9.08898 14.4076 9.08898H9.18504C9.10949 9.08898 9.04824 9.15023 9.04824 9.22578V14.4144C9.04824 14.49 8.987 14.5512 8.91144 14.5512H6.07482C5.99927 14.5512 5.93803 14.49 5.93803 14.4144V9.22578C5.93803 9.15023 5.87678 9.08898 5.80123 9.08898H0.578691C0.50314 9.08898 0.441895 9.02774 0.441895 8.95218V6.11869C0.441895 6.04314 0.50314 5.9819 0.578691 5.9819H5.80123C5.87678 5.9819 5.93803 5.92065 5.93803 5.8451V0.585527C5.93803 0.509976 5.99927 0.44873 6.07482 0.44873H8.91144C8.987 0.44873 9.04824 0.509976 9.04824 0.585527V5.8451Z" fill="white"/>
</svg>
