<svg width="46" height="36" viewBox="0 0 46 36" fill="none" xmlns="http://www.w3.org/2000/svg">
<path d="M42.3169 3.37669L42.4455 3.24159L42.2618 3.20927C42.2476 3.20677 42.2331 3.20412 42.2183 3.20141C42.1348 3.18612 42.0414 3.16902 41.9435 3.16902H4.42958C4.33168 3.16902 4.23825 3.18612 4.15474 3.20141C4.13992 3.20412 4.12541 3.20677 4.11125 3.20927L3.92756 3.24159L4.05614 3.37669L22.1319 22.3693L22.1319 22.3694C22.3897 22.64 22.7938 22.768 23.1865 22.768C23.5793 22.768 23.9834 22.64 24.2411 22.3694L24.2412 22.3693L42.3169 3.37669ZM2.60098 4.83973L2.48098 4.71363L2.43249 4.88082C2.35229 5.15737 2.3018 5.44964 2.3018 5.76753V30.7527C2.3018 31.0924 2.35687 31.4253 2.44894 31.7195L2.49704 31.8731L2.61347 31.7619L15.9524 19.0156L16.0246 18.9467L15.9558 18.8744L2.60098 4.83973ZM43.9406 4.88082L43.8921 4.71362L43.7721 4.83973L30.4172 18.8744L30.3485 18.9467L30.4206 19.0156L43.7596 31.7619L43.876 31.8731L43.9241 31.7195C44.0162 31.4253 44.0712 31.0924 44.0712 30.7527V5.76753C44.0712 5.44963 44.0207 5.15737 43.9406 4.88082ZM17.54 20.5335L17.4709 20.461L17.3985 20.5301L4.17042 33.1594L4.01459 33.3082L4.22881 33.3312C4.24322 33.3327 4.25967 33.3349 4.27749 33.3374C4.32302 33.3436 4.37747 33.3511 4.42958 33.3511H41.9435C41.9956 33.3511 42.05 33.3436 42.0956 33.3374C42.1134 33.3349 42.1298 33.3327 42.1442 33.3312L42.3585 33.3082L42.2026 33.1594L28.9745 20.5301L28.9021 20.461L28.8331 20.5335L25.4112 24.1251L25.4112 24.1251C24.1355 25.4645 22.2375 25.4645 20.9618 24.1251L20.9618 24.1251L17.54 20.5335ZM0.474023 5.76753C0.474023 3.0555 2.27404 0.870508 4.42958 0.870508H41.9435C44.099 0.870508 45.899 3.0555 45.899 5.76753V30.7527C45.899 33.4647 44.099 35.6497 41.9435 35.6497H4.42958C2.27404 35.6497 0.474023 33.4647 0.474023 30.7527V5.76753Z" fill="#4D2C19" stroke="#FFE3AD" stroke-width="0.2"/>
</svg>
