<svg width="32" height="36" viewBox="0 0 32 36" fill="none" xmlns="http://www.w3.org/2000/svg">
<path fill-rule="evenodd" clip-rule="evenodd" d="M27.6667 4.4H26V1H22.6667V4.4H9.33333V1H6V4.4H4.33333C2.48333 4.4 1 5.93 1 7.8V31.6C1 33.47 2.48333 35 4.33333 35H27.6667C29.5 35 31 33.47 31 31.6V7.8C31 5.93 29.5 4.4 27.6667 4.4ZM27.6667 31.6H4.33333V12.9H27.6667V31.6ZM6.83333 19.7C6.83333 17.354 8.7 15.45 11 15.45C13.3 15.45 15.1667 17.354 15.1667 19.7C15.1667 22.046 13.3 23.95 11 23.95C8.7 23.95 6.83333 22.046 6.83333 19.7Z" fill="#EA7D28" stroke="white" stroke-width="0.5"/>
</svg>
