<svg width="26" height="15" viewBox="0 0 26 15" fill="none" xmlns="http://www.w3.org/2000/svg">
<path d="M13.0366 14.9999C12.5295 15.006 12.0403 14.8126 11.6742 14.4613L0.575348 3.32521C0.394155 3.14554 0.25009 2.93191 0.151375 2.69651C0.0526602 2.46112 0.00123052 2.20856 2.18126e-05 1.95326C-0.00118689 1.69797 0.0478493 1.44494 0.144331 1.20861C0.240813 0.972291 0.382849 0.757304 0.562332 0.575929C0.741816 0.394553 0.955231 0.250343 1.19039 0.151528C1.42555 0.0527133 1.67785 0.00123176 1.93289 2.18346e-05C2.18793 -0.00118809 2.44071 0.0478976 2.67679 0.144477C2.91288 0.241055 3.12765 0.383235 3.30884 0.562899L13.0366 10.3352L22.7643 0.562899C23.1324 0.228542 23.6148 0.0487535 24.1117 0.0607972C24.6086 0.072841 25.0818 0.275794 25.4332 0.627591C25.7847 0.979389 25.9874 1.45306 25.9994 1.95043C26.0115 2.4478 25.8319 2.93074 25.4978 3.29915L14.399 14.4613C14.0329 14.8126 13.5437 15.006 13.0366 14.9999Z" fill="#EA7D28"/>
</svg>
