<svg width="27" height="16" viewBox="0 0 27 16" fill="none" xmlns="http://www.w3.org/2000/svg">
<path d="M13.4657 15.0453C12.9614 15.0512 12.4748 14.8637 12.1107 14.5231L1.07222 3.72444C0.892011 3.55022 0.74873 3.34307 0.650552 3.1148C0.552374 2.88654 0.501224 2.64163 0.500022 2.39407C0.49882 2.14652 0.547589 1.90115 0.643546 1.67199C0.739503 1.44283 0.880766 1.23436 1.05927 1.05848C1.23778 0.882597 1.45004 0.742756 1.68392 0.646936C1.9178 0.551116 2.16873 0.501194 2.42238 0.500021C2.67603 0.498848 2.92743 0.546446 3.16223 0.640098C3.39703 0.733751 3.61064 0.871622 3.79084 1.04584L13.4657 10.522L23.1405 1.04584C23.5066 0.721616 23.9864 0.547276 24.4806 0.558955C24.9747 0.570634 25.4453 0.767437 25.7949 1.10857C26.1444 1.44971 26.3461 1.90903 26.358 2.39132C26.37 2.87362 26.1914 3.34193 25.8591 3.69917L14.8207 14.5231C14.4566 14.8637 13.97 15.0512 13.4657 15.0453Z" fill="#EA7D28"/>
</svg>
