<svg width="22" height="13" viewBox="0 0 22 13" fill="none" xmlns="http://www.w3.org/2000/svg">
<path d="M11.3291 12.414C10.9191 12.4188 10.5236 12.2664 10.2276 11.9895L1.25423 3.21105C1.10774 3.06943 0.99126 2.90102 0.911449 2.71546C0.831638 2.5299 0.790057 2.33082 0.78908 2.12957C0.788103 1.92833 0.827749 1.72887 0.905754 1.54258C0.983759 1.35629 1.09859 1.18681 1.24371 1.04384C1.38882 0.900864 1.56136 0.787185 1.75149 0.709291C1.94162 0.631397 2.1456 0.590815 2.3518 0.589861C2.558 0.588907 2.76237 0.627601 2.95324 0.703732C3.14411 0.779864 3.31776 0.891942 3.46425 1.03357L11.3291 8.73693L19.194 1.03357C19.4915 0.77 19.8816 0.628275 20.2833 0.637769C20.685 0.647263 21.0676 0.807248 21.3517 1.08456C21.6359 1.36188 21.7998 1.73527 21.8095 2.12734C21.8193 2.51941 21.674 2.9001 21.404 3.19051L12.4306 11.9895C12.1346 12.2664 11.7391 12.4188 11.3291 12.414Z" fill="#F6841F"/>
</svg>
